<svg width="30" height="30" viewBox="0 0 30 30" fill="none" xmlns="http://www.w3.org/2000/svg">
<mask id="path-1-inside-1_103_37" fill="white">
<path fill-rule="evenodd" clip-rule="evenodd" d="M15 27C21.6274 27 27 21.6274 27 15C27 8.37258 21.6274 3 15 3C8.37258 3 3 8.37258 3 15C3 21.6274 8.37258 27 15 27ZM13.6846 20.1821C13.6702 20.1735 13.6562 20.1645 13.6424 20.1552C13.349 20.1641 13.0544 20.0444 12.8495 19.8034L9.6108 15.9941C9.25307 15.5733 9.30416 14.9422 9.72493 14.5845C10.1457 14.2267 10.7768 14.2778 11.1345 14.6986L13.8803 17.9281L18.5264 10.2546C18.8125 9.78214 19.4273 9.63104 19.8998 9.91708C20.3722 10.2031 20.5233 10.818 20.2373 11.2904L15.0579 19.8447C14.7719 20.3171 14.157 20.4682 13.6846 20.1821Z"/>
</mask>
<path fill-rule="evenodd" clip-rule="evenodd" d="M15 27C21.6274 27 27 21.6274 27 15C27 8.37258 21.6274 3 15 3C8.37258 3 3 8.37258 3 15C3 21.6274 8.37258 27 15 27ZM13.6846 20.1821C13.6702 20.1735 13.6562 20.1645 13.6424 20.1552C13.349 20.1641 13.0544 20.0444 12.8495 19.8034L9.6108 15.9941C9.25307 15.5733 9.30416 14.9422 9.72493 14.5845C10.1457 14.2267 10.7768 14.2778 11.1345 14.6986L13.8803 17.9281L18.5264 10.2546C18.8125 9.78214 19.4273 9.63104 19.8998 9.91708C20.3722 10.2031 20.5233 10.818 20.2373 11.2904L15.0579 19.8447C14.7719 20.3171 14.157 20.4682 13.6846 20.1821Z" fill="#6679BB"/>
<path d="M13.6424 20.1552L14.7612 18.4973L14.2264 18.1365L13.5816 18.1561L13.6424 20.1552ZM13.6846 20.1821L12.6486 21.8929L12.6487 21.893L13.6846 20.1821ZM12.8495 19.8034L11.3258 21.0989L11.3258 21.0989L12.8495 19.8034ZM9.6108 15.9941L11.1345 14.6986L11.1345 14.6986L9.6108 15.9941ZM11.1345 14.6986L12.6582 13.4031L12.6582 13.4031L11.1345 14.6986ZM13.8803 17.9281L12.3566 19.2236L14.154 21.3377L15.5912 18.964L13.8803 17.9281ZM18.5264 10.2546L20.2373 11.2904L20.2373 11.2904L18.5264 10.2546ZM19.8998 9.91708L20.9356 8.20624L20.9356 8.20624L19.8998 9.91708ZM20.2373 11.2904L18.5264 10.2546L18.5264 10.2546L20.2373 11.2904ZM15.0579 19.8447L16.7688 20.8805L16.7688 20.8805L15.0579 19.8447ZM25 15C25 20.5228 20.5228 25 15 25V29C22.732 29 29 22.732 29 15H25ZM15 5C20.5228 5 25 9.47715 25 15H29C29 7.26801 22.732 1 15 1V5ZM5 15C5 9.47715 9.47715 5 15 5V1C7.26801 1 1 7.26801 1 15H5ZM15 25C9.47715 25 5 20.5228 5 15H1C1 22.732 7.26801 29 15 29V25ZM12.5237 21.813C12.5646 21.8406 12.6063 21.8673 12.6486 21.8929L14.7206 18.4714C14.7342 18.4796 14.7478 18.4883 14.7612 18.4973L12.5237 21.813ZM11.3258 21.0989C11.9411 21.8226 12.8284 22.1809 13.7033 22.1543L13.5816 18.1561C13.8697 18.1473 14.1677 18.2662 14.3732 18.5079L11.3258 21.0989ZM8.08708 17.2895L11.3258 21.0989L14.3732 18.5079L11.1345 14.6986L8.08708 17.2895ZM8.42945 13.0607C7.16715 14.134 7.01387 16.0273 8.08708 17.2895L11.1345 14.6986C11.4923 15.1194 11.4412 15.7505 11.0204 16.1082L8.42945 13.0607ZM12.6582 13.4031C11.585 12.1408 9.69174 11.9875 8.42945 13.0607L11.0204 16.1082C10.5996 16.4659 9.96854 16.4148 9.6108 15.9941L12.6582 13.4031ZM15.404 16.6327L12.6582 13.4031L9.6108 15.9941L12.3566 19.2236L15.404 16.6327ZM16.8156 9.21871L12.1695 16.8923L15.5912 18.964L20.2373 11.2904L16.8156 9.21871ZM20.9356 8.20624C19.5183 7.3481 17.6737 7.8014 16.8156 9.21871L20.2373 11.2904C19.9512 11.7629 19.3363 11.914 18.8639 11.6279L20.9356 8.20624ZM21.9481 12.3263C22.8063 10.909 22.3529 9.06438 20.9356 8.20624L18.8639 11.6279C18.3915 11.3419 18.2404 10.727 18.5264 10.2546L21.9481 12.3263ZM16.7688 20.8805L21.9481 12.3263L18.5264 10.2546L13.3471 18.8088L16.7688 20.8805ZM12.6487 21.893C14.066 22.7511 15.9107 22.2978 16.7688 20.8805L13.3471 18.8088C13.6331 18.3364 14.248 18.1853 14.7205 18.4713L12.6487 21.893Z" fill="#6679BB" mask="url(#path-1-inside-1_103_37)"/>
</svg>
